<?xml version="1.0" encoding="UTF-8" standalone="no"?>
<!DOCTYPE svg PUBLIC "-//W3C//DTD SVG 1.1//EN" "http://www.w3.org/Graphics/SVG/1.1/DTD/svg11.dtd">
<svg width="100%" height="100%" viewBox="0 0 1080 1080" version="1.1" xmlns="http://www.w3.org/2000/svg" xmlns:xlink="http://www.w3.org/1999/xlink" xml:space="preserve" xmlns:serif="http://www.serif.com/" style="fill-rule:evenodd;clip-rule:evenodd;stroke-linejoin:round;stroke-miterlimit:2;">
    <path d="M1017.96,271.227L1017.96,808.773C1017.96,924.224 924.224,1017.96 808.773,1017.96L271.227,1017.96C155.776,1017.96 62.045,924.224 62.045,808.773L62.045,271.227C62.045,155.776 155.776,62.045 271.227,62.045L808.773,62.045C924.224,62.045 1017.96,155.776 1017.96,271.227ZM957.955,271.227C957.955,188.891 891.109,122.045 808.773,122.045L271.227,122.045C188.891,122.045 122.045,188.891 122.045,271.227L122.045,808.773C122.045,891.109 188.891,957.955 271.227,957.955L808.773,957.955C891.109,957.955 957.955,891.109 957.955,808.773L957.955,271.227Z"/>
    <g transform="matrix(1.07114,0,0,1.07114,-38.4167,-38.4167)">
        <path d="M540,260.469C694.277,260.469 819.531,385.723 819.531,540C819.531,694.277 694.277,819.531 540,819.531C385.723,819.531 260.469,694.277 260.469,540C260.469,385.723 385.723,260.469 540,260.469ZM540,316.484C416.638,316.484 316.484,416.638 316.484,540C316.484,663.362 416.638,763.516 540,763.516C663.362,763.516 763.516,663.362 763.516,540C763.516,416.638 663.362,316.484 540,316.484Z"/>
    </g>
    <g transform="matrix(0.962727,0,0,0.962727,44.5168,2.25393)">
        <circle cx="820.819" cy="251.505" r="66.485" style="fill:rgb(14,0,0);"/>
    </g>
</svg>
